<svg width="20" height="20" viewBox="0 0 20 20" fill="none" xmlns="http://www.w3.org/2000/svg">
<path d="M18.7168 4.99992C18.0751 5.29159 17.3834 5.48325 16.6668 5.57492C17.4001 5.13325 17.9668 4.43325 18.2334 3.59159C17.5418 4.00825 16.7751 4.29992 15.9668 4.46659C15.3084 3.74992 14.3834 3.33325 13.3334 3.33325C11.3751 3.33325 9.77511 4.93325 9.77511 6.90825C9.77511 7.19159 9.80845 7.46659 9.86678 7.72492C6.90011 7.57492 4.25845 6.14992 2.50011 3.99159C2.19178 4.51659 2.01678 5.13325 2.01678 5.78325C2.01678 7.02492 2.64178 8.12492 3.60845 8.74992C3.01678 8.74992 2.46678 8.58325 1.98345 8.33325V8.35825C1.98345 10.0916 3.21678 11.5416 4.85011 11.8666C4.32572 12.0101 3.77519 12.0301 3.24178 11.9249C3.46812 12.6353 3.91139 13.2569 4.50929 13.7024C5.10719 14.1478 5.82965 14.3947 6.57511 14.4083C5.31147 15.4086 3.74511 15.9493 2.13345 15.9416C1.85011 15.9416 1.56678 15.9249 1.28345 15.8916C2.86678 16.9083 4.75011 17.4999 6.76678 17.4999C13.3334 17.4999 16.9418 12.0499 16.9418 7.32492C16.9418 7.16659 16.9418 7.01659 16.9334 6.85825C17.6334 6.35825 18.2334 5.72492 18.7168 4.99992Z" fill="black"/>
</svg>
